PathFileType	4	(X/Y/Z)	./resultDataOpenSim/trcMotMarkerGrf/sub10/qtm-14-03.trc
DataRate	CameraRate	NumFrames	NumMarkers	Units	OrigDataRate	OrigDataStartFrame	OrigNumFrames
250.000000	250.000000	13	24	m	250.000000	243	484
Frame#	Time	L.Toe.Tip			R.Toe.Tip			L.Ankle.Lat			R.Ankle.Lat			L.Ankle.Med			R.Ankle.Med			L.Heel			R.Heel			L.Knee.Lat			R.Knee.Lat			L.Knee.Med			R.Knee.Med			L.Thigh.Upper			R.Thigh.Upper			L.ASIS			R.ASIS			V.Sacral			L.Acromium			R.Acromium			C7			L.Elbow			R.Elbow			L.Wrist.Lat			R.Wrist.Lat
		X1	Y1	Z1	X2	Y2	Z2	X3	Y3	Z3	X4	Y4	Z4	X5	Y5	Z5	X6	Y6	Z6	X7	Y7	Z7	X8	Y8	Z8	X9	Y9	Z9	X10	Y10	Z10	X11	Y11	Z11	X12	Y12	Z12	X13	Y13	Z13	X14	Y14	Z14	X15	Y15	Z15	X16	Y16	Z16	X17	Y17	Z17	X18	Y18	Z18	X19	Y19	Z19	X20	Y20	Z20	X21	Y21	Z21	X22	Y22	Z22	X23	Y23	Z23	X24	Y24	Z24

243	0.968	0.019500086	-0.033229566	-0.091479619	0.52858416	0.12921495	0.10738092	-0.1065111	0.013564507	-0.10899739	0.38733298	0.13268027	0.13037097	-0.081755023	0.035797289	-0.027817326	0.41305792	0.15317814	0.045438229	-0.17417218	0.0025173824	-0.059242785	0.34598907	0.094457511	0.082680996	0.091799159	0.33434351	-0.16708441	0.38232947	0.52708695	0.1075451	0.11531727	0.31945086	-0.048387396	0.39406401	0.53391137	-0.021826105	0.030627036	0.72367817	-0.22831454	0.073965641	0.7644352	0.15952546	0.092939763	0.82876518	-0.17205428	0.13010893	0.84184679	0.073291823	-0.084787303	0.8556145	-0.020829204	0.15795191	1.3109111	-0.1985613	0.10986287	1.3479074	0.064613042	0.067182167	1.3404829	-0.082548677	0.13966941	1.106244	-0.47187216	-0.06561538	1.2214762	0.32558883	0.35851628	1.1367049	-0.59378888	-0.028814225	1.3442733	0.54405871
244	0.972	0.01952429	-0.03323772	-0.091449242	0.54778386	0.12911363	0.10459473	-0.10613193	0.014157355	-0.10899033	0.40698418	0.12885737	0.12937028	-0.081278991	0.03616083	-0.027766132	0.43085121	0.15052112	0.044444896	-0.17389469	0.0034609383	-0.059387247	0.36556061	0.090150851	0.082319303	0.094646421	0.33346155	-0.16656788	0.38882936	0.52387299	0.10730394	0.11811035	0.31813723	-0.048137388	0.40025019	0.53031324	-0.021929117	0.035637254	0.7229051	-0.22834042	0.082610535	0.7641593	0.15925879	0.097617335	0.82902959	-0.1729926	0.1378212	0.84194572	0.073253978	-0.078193512	0.85495255	-0.019022424	0.16398099	1.311495	-0.19782988	0.11565921	1.3483391	0.064059461	0.073439673	1.3406433	-0.082391928	0.14825548	1.1118459	-0.47425479	-0.061381616	1.227475	0.32586159	0.36758333	1.1456711	-0.59458923	-0.027027284	1.3541891	0.54257601
245	0.976	0.019551086	-0.033248018	-0.091422541	0.56647205	0.12903358	0.10169986	-0.10574274	0.014736184	-0.10899647	0.42604996	0.12537506	0.12831803	-0.080835439	0.03650487	-0.027711142	0.44820901	0.14806164	0.043392036	-0.17361841	0.0043894373	-0.05954319	0.38467938	0.086203427	0.081836152	0.097490842	0.33259692	-0.16607793	0.39518522	0.5203766	0.10720005	0.12092135	0.3167663	-0.04785656	0.40634914	0.52648774	-0.021968033	0.040032724	0.72213689	-0.22801867	0.091249143	0.76384899	0.15888917	0.1023661	0.82928174	-0.17382567	0.14550154	0.84216236	0.073182621	-0.071665328	0.85442795	-0.017170403	0.169967	1.3121538	-0.19706966	0.12143696	1.3487766	0.063559221	0.079670685	1.3408457	-0.082165101	0.15678359	1.1174798	-0.47644088	-0.05716266	1.2333417	0.32601383	0.37648041	1.1545747	-0.59524062	-0.02510411	1.3639297	0.5408909
246	0.98	0.019583757	-0.033262124	-0.091401715	0.58462342	0.12890691	0.098680403	-0.10534662	0.015299276	-0.10900466	0.44449027	0.12226065	0.12728161	-0.080409059	0.036839623	-0.027638954	0.46512553	0.14579004	0.042288326	-0.1733434	0.0053049948	-0.059697816	0.403303	0.082599633	0.08122662	0.10030572	0.33175002	-0.16563504	0.40147465	0.51666813	0.10713733	0.12351062	0.31538885	-0.047292273	0.41240399	0.52247901	-0.021972717	0.044240089	0.72145597	-0.22727996	0.099869368	0.76350408	0.15845258	0.10719323	0.82950858	-0.17455754	0.15315264	0.84253749	0.073069094	-0.06511832	0.85395783	-0.015319701	0.17590521	1.3128879	-0.19628163	0.12718763	1.3492199	0.06310757	0.08587612	1.3410643	-0.081869637	0.16525433	1.1231363	-0.47842205	-0.052959868	1.2391101	0.32605632	0.38519954	1.1633977	-0.59574999	-0.0230128	1.3734705	0.53902694
247	0.984	0.019618419	-0.033276656	-0.091384034	0.6022211	0.12868339	0.095550148	-0.10495658	0.015852464	-0.10900544	0.46238153	0.11944926	0.12624289	-0.079986828	0.037170938	-0.027542019	0.48157421	0.14367186	0.041159211	-0.17307055	0.0062084096	-0.059832427	0.42137531	0.079322526	0.080517365	0.10306648	0.3309322	-0.16527905	0.40773652	0.51280016	0.10707755	0.12587568	0.31403843	-0.046430289	0.41844073	0.51833014	-0.021960773	0.04848145	0.72080707	-0.22617905	0.1084636	0.76314042	0.15799874	0.11211227	0.82970696	-0.17519713	0.1607911	0.8431003	0.072924388	-0.058468427	0.85350102	-0.013526022	0.1817974	1.3136963	-0.19546749	0.13291527	1.3496614	0.062701881	0.092064454	1.3412656	-0.08150485	0.17365642	1.1287993	-0.4801969	-0.048792869	1.2447752	0.32600859	0.39374966	1.1721418	-0.5961198	-0.020785416	1.3828011	0.53699958
248	0.988	0.019642204	-0.033276568	-0.091357666	0.61926551	0.12834771	0.092320337	-0.10458517	0.01640912	-0.10899258	0.47975206	0.11688496	0.12516795	-0.079566051	0.037502005	-0.027422309	0.49748681	0.14166224	0.040040846	-0.17279868	0.0071040637	-0.059926989	0.43885184	0.076348617	0.079745202	0.10574796	0.33015578	-0.16502277	0.41398611	0.50880426	0.10703788	0.12812286	0.31272816	-0.045494386	0.42446408	0.51407483	-0.021928935	0.052932892	0.72020582	-0.22496251	0.11702679	0.76279149	0.15757973	0.11714316	0.82987737	-0.17575076	0.16844284	0.84384593	0.072765033	-0.051657708	0.85306134	-0.011828557	0.18765727	1.3145771	-0.19462641	0.1386448	1.3500922	0.062353881	0.098241005	1.341464	-0.081076414	0.18196919	1.1344251	-0.48178904	-0.044638152	1.2502938	0.32588363	0.402157	1.1808149	-0.59634534	-0.018463835	1.3919195	0.53481665
249	0.992	0.019642159	-0.033245431	-0.091308325	0.635731	0.12794944	0.088981829	-0.10423509	0.01698201	-0.10895978	0.49651948	0.11460463	0.12407237	-0.079151894	0.037836123	-0.027287189	0.51278374	0.13974589	0.038953008	-0.17252343	0.0080054159	-0.059967183	0.4557245	0.073638103	0.078910536	0.1083516	0.32942357	-0.16480809	0.42025775	0.50471644	0.10704242	0.13028385	0.31147237	-0.044728366	0.43047402	0.509735	-0.021863961	0.057741934	0.71975801	-0.22389883	0.12555923	0.76250402	0.15723742	0.12229841	0.8300202	-0.17621643	0.17613171	0.84473439	0.07259464	-0.04467449	0.8526574	-0.010254228	0.1935017	1.3155228	-0.19375367	0.14440252	1.3505104	0.062077049	0.10439321	1.341712	-0.080614741	0.1901659	1.1399385	-0.4832577	-0.040434315	1.255627	0.3256829	0.41043782	1.1894207	-0.59642674	-0.016056198	1.4008216	0.53248689
250	0.996	0.019622708	-0.033190236	-0.091240475	0.6515207	0.1276187	0.085538771	-0.10389934	0.017582446	-0.10889712	0.51255575	0.11268013	0.12297306	-0.078745085	0.038178313	-0.027141367	0.52745108	0.1379557	0.037851987	-0.17223883	0.008928705	-0.059946536	0.47201532	0.07112709	0.0779521	0.11091166	0.32873152	-0.16455142	0.4266021	0.50060159	0.1070941	0.13237543	0.31029122	-0.044241886	0.43647183	0.50532601	-0.021757718	0.062844613	0.71951292	-0.22303565	0.13406392	0.76232179	0.15699523	0.12757314	0.83013858	-0.17658258	0.1838698	0.84570642	0.07239889	-0.037543187	0.85228875	-0.0088193481	0.1993296	1.316514	-0.19284872	0.1501839	1.3509184	0.06186631	0.11052385	1.3420052	-0.080132721	0.19822653	1.1452907	-0.48465306	-0.036150891	1.260777	0.32539775	0.41858248	1.1979562	-0.59636748	-0.01354721	1.4095011	0.53002474
251	1	0.01960478	-0.033138979	-0.091176073	0.66652312	0.12748139	0.082037996	-0.10356687	0.018218839	-0.10879214	0.5277938	0.11106828	0.1217994	-0.078332679	0.038536654	-0.026982665	0.54154574	0.13633082	0.036641298	-0.17193884	0.0098819416	-0.05986267	0.48773059	0.068732686	0.076802005	0.11342995	0.32806899	-0.16421156	0.43304717	0.49654159	0.10718374	0.13444999	0.309201	-0.044002457	0.44245297	0.50086492	-0.021618035	0.06804756	0.71940962	-0.22225548	0.14253958	0.76226365	0.15685582	0.13295474	0.83023957	-0.17683763	0.19166156	0.84670129	0.072153031	-0.030297395	0.85193	-0.0075233773	0.20512311	1.3175303	-0.19191355	0.15592416	1.3513207	0.061685297	0.11666816	1.3422665	-0.079595797	0.20616568	1.1505429	-0.48593993	-0.031808617	1.2657745	0.32501827	0.42656638	1.2064117	-0.59616744	-0.0109129	1.4179526	0.5274453
252	1.004	0.019603243	-0.033108968	-0.091126704	0.68071081	0.12755055	0.078555661	-0.10322464	0.018880373	-0.10863939	0.54230178	0.10954049	0.12041335	-0.077895812	0.038919616	-0.02680452	0.55510286	0.13486158	0.035262858	-0.17161835	0.010864729	-0.05971827	0.50284077	0.066379189	0.075460191	0.11584033	0.32742257	-0.16378927	0.43956657	0.49258922	0.10733264	0.13653024	0.30820072	-0.043868851	0.44841285	0.4963754	-0.021466386	0.073230983	0.71935693	-0.22146825	0.15098732	0.76232158	0.15680591	0.13844079	0.83032796	-0.1769846	0.19951154	0.84766946	0.07183206	-0.022963503	0.85155266	-0.0063487766	0.21086498	1.3185725	-0.19094441	0.16150899	1.3517273	0.061475303	0.12283093	1.3424728	-0.078988444	0.21402798	1.1558255	-0.48702062	-0.027440262	1.2706348	0.32454439	0.4343684	1.2147734	-0.59582789	-0.008131179	1.4261701	0.52475996
253	1.008	0.01961635	-0.033096637	-0.091086432	0.69414272	0.12774379	0.075185213	-0.10286069	0.019536486	-0.10845304	0.55626268	0.10779351	0.11873673	-0.077428085	0.039330441	-0.026604772	0.56809117	0.13349002	0.033745925	-0.17127601	0.011874875	-0.059525236	0.51732242	0.064025857	0.073973114	0.11809071	0.32679574	-0.16331655	0.4461062	0.48875788	0.10758369	0.13859991	0.30727495	-0.043681934	0.45437001	0.4918932	-0.021320552	0.078376164	0.71930239	-0.22065535	0.15942547	0.76247917	0.15682232	0.14405065	0.83039981	-0.17704308	0.20742705	0.84858194	0.071422122	-0.015555985	0.851147	-0.0052674201	0.21653742	1.319665	-0.18994055	0.16686817	1.3521495	0.061201608	0.12896562	1.3426906	-0.078349781	0.22184099	1.1612	-0.48784201	-0.023063067	1.2753436	0.32399136	0.44199274	1.2230374	-0.59535226	-0.0052002292	1.4341475	0.52197955
254	1.012	0.019634826	-0.033092187	-0.091047429	0.70688985	0.12798351	0.072038934	-0.10247359	0.020174818	-0.10826275	0.56982362	0.10566775	0.11683248	-0.076938872	0.039766779	-0.026390073	0.58045539	0.13215637	0.032165654	-0.1709152	0.012911512	-0.059300619	0.53118246	0.061669697	0.072360695	0.12022056	0.3262143	-0.16285674	0.45264494	0.48506069	0.10793476	0.14065651	0.30641521	-0.043389556	0.46036038	0.48746884	-0.021187686	0.083501437	0.71923379	-0.21982679	0.16788605	0.76271669	0.15687558	0.14982173	0.83044433	-0.17704055	0.21540424	0.84943002	0.070920125	-0.0080835465	0.85073257	-0.0042469209	0.22212736	1.3208259	-0.18891494	0.17208151	1.3525854	0.060906486	0.13503987	1.3429716	-0.077712326	0.22959623	1.1666292	-0.48842036	-0.018679049	1.2798811	0.32338581	0.44948516	1.2312172	-0.59473902	-0.0021458747	1.4418813	0.5191141
255	1.016	0.019651264	-0.033088891	-0.091007864	0.71897803	0.12826315	0.069209567	-0.10207434	0.0208208	-0.10809142	0.5828869	0.10330782	0.11487378	-0.076436284	0.04022649	-0.026168519	0.5921546	0.13083133	0.030590174	-0.1705418	0.013973991	-0.059061701	0.54441113	0.059329526	0.070632654	0.12231063	0.32570376	-0.16245462	0.45920292	0.48152208	0.1083341	0.14271943	0.30562687	-0.04304655	0.4664038	0.48316115	-0.021071625	0.088624574	0.71915638	-0.21899369	0.17639607	0.76300298	0.15693671	0.15578284	0.83044969	-0.17700268	0.2234106	0.85021286	0.070321461	-0.0005779452	0.85035873	-0.0032442052	0.22765181	1.3220386	-0.18788654	0.17732794	1.3530192	0.060683948	0.14106785	1.3433079	-0.077067937	0.23727315	1.1720503	-0.48879448	-0.014283824	1.2842446	0.32275175	0.45690367	1.2393251	-0.5939835	0.0010058236	1.4493688	0.5161694
